<?xml version="1.0" encoding="utf-8"?>
<!-- Generator: Adobe Illustrator 16.0.0, SVG Export Plug-In . SVG Version: 6.00 Build 0)  -->
<!DOCTYPE svg PUBLIC "-//W3C//DTD SVG 1.1//EN" "http://www.w3.org/Graphics/SVG/1.1/DTD/svg11.dtd">
<svg version="1.1" id="Layer_1" xmlns="http://www.w3.org/2000/svg" xmlns:xlink="http://www.w3.org/1999/xlink" x="0px" y="0px"
	 width="1080px" height="1080px" viewBox="0 0 1080 1080" enable-background="new 0 0 1080 1080" xml:space="preserve">
<g>
	<g>
		<path fill="#161F48" d="M38.927,634.137H52.09v89.53H38.927V634.137z"/>
		<path fill="#161F48" d="M131.982,680.791v42.876h-12.641v-40.659c0-10.038-6.387-17.072-15.51-17.072
			c-9.382,0-17.46,6.125-18.503,14.072v43.659H72.424v-67.375h12.904v9.773c4.039-6.647,12.251-11.339,21.371-11.339
			C121.554,654.727,131.982,665.544,131.982,680.791z"/>
		<path fill="#161F48" d="M187.767,720.411c-3.648,2.995-8.6,4.816-13.421,4.816c-10.425,0-17.723-7.556-17.723-18.373v-39.615
			h-10.167v-10.947h10.167v-18.508h12.636v18.508h15.902v10.947h-15.902v38.702c0,4.691,3.13,8.083,6.913,8.083
			c2.863,0,5.471-1.044,6.906-2.479L187.767,720.411z"/>
		<path fill="#161F48" d="M252.153,706.464l8.083,8.343c-5.998,6.383-17.728,10.421-27.24,10.421
			c-18.765,0-34.666-14.725-34.666-35.446c0-20.194,14.989-35.055,33.625-35.055c20.59,0,32.449,15.639,32.449,39.746h-53.039
			c1.691,11.208,9.904,19.291,21.503,19.291C239.903,713.764,248.114,710.633,252.153,706.464z M211.492,684.178h40.402
			c-1.432-10.421-7.819-17.981-19.418-17.981C222.05,666.196,213.581,673.23,211.492,684.178z"/>
		<path fill="#161F48" d="M280.443,632.576h12.771v91.091h-12.771V632.576z"/>
		<path fill="#161F48" d="M313.026,632.576h12.771v91.091h-12.771V632.576z"/>
		<path fill="#161F48" d="M344.175,637.267c0-4.043,3.389-7.69,7.819-7.69c4.169,0,7.691,3.647,7.691,7.69
			c0,4.17-3.522,7.817-7.691,7.817C347.564,645.084,344.175,641.437,344.175,637.267z M345.481,656.292h12.899v67.375h-12.899
			V656.292z"/>
		<path fill="#161F48" d="M442.182,656.292v60.206c0,17.334-14.204,29.581-34.144,29.581c-11.338,0-21.762-3.778-28.149-8.991
			l5.083-9.643c4.95,4.691,13.032,7.43,21.11,7.43c14.464,0,23.197-6.908,23.197-18.638v-9.773
			c-5.343,7.69-13.684,12.251-23.847,12.251c-17.723,0-30.627-13.29-30.627-32.059c0-18.765,12.904-31.93,30.627-31.93
			c10.163,0,18.767,4.822,23.847,12.378v-10.813H442.182z M429.278,686.656c0-12.121-8.6-20.721-20.59-20.721
			c-11.988,0-20.458,8.6-20.458,20.721c0,12.251,8.469,20.851,20.458,20.851C420.678,707.507,429.278,698.907,429.278,686.656z"/>
		<path fill="#161F48" d="M512.696,706.464l8.078,8.343c-5.993,6.383-17.723,10.421-27.233,10.421
			c-18.771,0-34.668-14.725-34.668-35.446c0-20.194,14.984-35.055,33.62-35.055c20.59,0,32.455,15.639,32.455,39.746h-53.045
			c1.698,11.208,9.908,19.291,21.503,19.291C500.447,713.764,508.653,710.633,512.696,706.464z M472.037,684.178h40.396
			c-1.433-10.421-7.819-17.981-19.415-17.981C482.589,666.196,474.12,673.23,472.037,684.178z"/>
		<path fill="#161F48" d="M600.543,680.791v42.876H587.9v-40.659c0-10.038-6.387-17.072-15.513-17.072
			c-9.382,0-17.46,6.125-18.499,14.072v43.659h-12.907v-67.375h12.907v9.773c4.039-6.647,12.248-11.339,21.369-11.339
			C590.118,654.727,600.543,665.544,600.543,680.791z"/>
		<path fill="#161F48" d="M616.447,689.912c0-19.155,16.295-35.186,35.581-35.186c9.647,0,18.373,4.039,24.76,10.426l-8.73,8.078
			c-4.043-4.557-9.908-7.295-16.16-7.295c-12.247,0-22.416,10.947-22.416,23.977c0,13.165,10.169,24.112,22.547,24.112
			c6.256,0,12.252-2.87,16.417-7.561l8.734,7.947c-6.513,6.647-15.248,10.816-25.282,10.816
			C632.742,725.228,616.447,709.072,616.447,689.912z"/>
		<path fill="#161F48" d="M742.216,706.464l8.082,8.343c-6,6.383-17.726,10.421-27.237,10.421
			c-18.765,0-34.669-14.725-34.669-35.446c0-20.194,14.991-35.055,33.625-35.055c20.59,0,32.45,15.639,32.45,39.746h-53.041
			c1.691,11.208,9.904,19.291,21.504,19.291C729.964,713.764,738.177,710.633,742.216,706.464z M701.557,684.178h40.402
			c-1.435-10.421-7.821-17.981-19.421-17.981C712.112,666.196,703.644,673.23,701.557,684.178z"/>
		<path fill="#161F48" d="M868.775,711.416v12.251h-60.728v-89.53h13.291v77.279H868.775z"/>
		<path fill="#161F48" d="M919.474,720.411c-3.644,2.995-8.596,4.816-13.421,4.816c-10.422,0-17.722-7.556-17.722-18.373v-39.615
			h-10.169v-10.947h10.169v-18.508h12.639v18.508h15.899v10.947H900.97v38.702c0,4.691,3.131,8.083,6.908,8.083
			c2.865,0,5.474-1.044,6.909-2.479L919.474,720.411z"/>
		<path fill="#161F48" d="M998.331,632.576v91.091h-12.773v-11.729c-5.213,8.339-13.556,13.29-23.978,13.29
			c-17.725,0-31.02-14.595-31.02-35.315c0-20.59,13.295-35.186,31.02-35.186c10.422,0,18.765,4.952,23.978,13.165v-35.315H998.331z
			 M985.558,689.912c0-14.073-8.73-23.977-20.852-23.977c-12.382,0-21.112,9.903-21.112,23.977c0,14.078,8.73,24.112,21.112,24.112
			C976.827,714.024,985.558,703.99,985.558,689.912z"/>
	</g>
	<g>
		<path fill="#161F48" d="M190.8,493.756l-5.227-7.277c0,0,9.256-1.772,20.404-7.299c16.947-8.382,38.318-25.376,38.318-57.87
			c0-21.256-8.912-34.727-20.588-43.27c-16.625-12.137-38.801-14.278-48.887-14.577c-3.362-0.092-5.366,0-5.366,0h-49.211H81.671
			v231.431h38.572V493.756h30.789l66.505,101.138h45.779L190.8,493.756z M120.243,479.18V378.041h35.14
			c15.566,0.712,50.916,6.562,50.916,44.72c0,28.785-12.665,56.419-65.906,56.419H120.243z"/>
		<path fill="#161F48" d="M434.277,558.625v-77.143c0-27.22-12.089-47.185-34.243-56.489c-9.097-3.845-19.896-5.872-32.239-5.872
			c-42.418,0-61.877,21.209-61.877,21.209v32.239c5.458,0,5.458,0,5.458,0s14.968-40.022,49.51-40.022s39.148,32.815,39.148,40.299
			v18.146c0,0-113.414,2.003-109.084,60.148c4.262,57.436,66.896,62.892,109.084,21.117c0.506-0.504,1.037-1.035,1.542-1.565
			l0.022-0.022c2.143,11.006,7.325,24.225,19.736,24.225h24.456C445.791,594.895,434.277,580.502,434.277,558.625z M400.034,556.025
			c-21.024,36.845-73.391,30.81-73.391-10.619c0-41.449,73.391-43.199,73.391-43.199V556.025z"/>
		<path fill="#161F48" d="M627.714,558.625v-77.143c0-27.22-12.09-47.185-34.245-56.489c-9.095-3.845-19.894-5.872-32.239-5.872
			c-42.417,0-61.876,21.209-61.876,21.209v32.239c5.458,0,5.458,0,5.458,0s14.968-40.022,49.51-40.022
			c34.542,0,39.147,32.815,39.147,40.299v18.146c0,0-113.412,2.003-109.083,60.148c4.261,57.436,66.895,62.892,109.083,21.117
			c0.508-0.504,1.039-1.035,1.543-1.565l0.022-0.022c2.146,11.006,7.326,24.225,19.735,24.225h24.458
			C639.228,594.895,627.714,580.502,627.714,558.625z M593.469,556.025c-21.022,36.845-73.39,30.81-73.39-10.619
			c0-41.449,73.39-43.199,73.39-43.199V556.025z"/>
		<path fill="#161F48" d="M921.344,423.59c-6.979-2.786-15.27-4.468-25.056-4.468c-46.632,0-60.881,37.328-60.881,37.328
			s-5.6-23.511-31.506-33.229c-6.725-2.51-14.649-4.1-23.905-4.1c-44.904,0-59.019,37.328-59.019,37.328v-37.328l-34.245,6.517
			l-6.054,1.151c0,0,6.054,12.942,6.054,27.634V595.47h34.245V486.94c0-5.458,10.524-45.182,44.05-45.182
			c33.53,0,38.874,33.966,38.874,33.966V595.47h34.24V491.546c0-25.607,21.302-49.511,43.479-49.511
			c38.549,0,39.723,39.263,39.723,39.263V595.47h34.241V472.847C955.585,460.411,947.688,434.09,921.344,423.59z"/>
	</g>
	<path fill="#161F48" d="M1021.377,372.756c0,0,13.295-12.286,19.695-31.372v-0.002c-0.022-0.002-0.045-0.006-0.072-0.006
		c-0.009-0.002-0.018-0.002-0.026-0.004c-0.005,0-0.009,0-0.014,0c-0.019-0.002-0.036-0.002-0.054-0.005l0,0
		c-20.042-1.673-36.558,5.658-36.558,5.658l15.837,5.465l0,0l0,0c-0.823,0.418-1.66,0.848-2.492,1.307
		c-2.712,1.417-5.572,2.89-8.465,4.524c-2.86,1.682-6.076,2.989-9.148,4.646c-1.664,0.866-3.342,1.736-5.023,2.611l0,0
		c-12.76-13.484-29.505-25.745-50.873-31.657c0,0,20.464,13.828,40.592,36.885l0,0c-1.197,0.599-2.389,1.196-3.576,1.79
		c-3.157,1.509-6.13,3.274-9.162,4.676c-5.995,2.932-11.5,5.89-16.281,8.309c-2.397,1.203-4.561,2.397-6.485,3.427
		c-1.943,0.983-3.616,1.916-5.002,2.663c-2.761,1.539-4.34,2.416-4.34,2.416s1.785-0.322,4.835-1.127
		c3.063-0.776,7.421-1.977,12.53-3.708c2.563-0.844,5.361-1.728,8.231-2.879c2.883-1.106,5.945-2.24,9.058-3.537
		c3.14-1.25,6.319-2.683,9.53-4.188c1.723-0.814,3.464-1.635,5.209-2.46c11.586,14.174,22.528,31.34,28.767,50.594l10.835-6.191
		c0,0-8.586-25.754-29.149-49.767l0,0c1.174-0.639,2.344-1.273,3.509-1.907c1.556-0.85,3.085-1.718,4.587-2.595
		c1.517-0.848,2.991-1.732,4.399-2.676c2.864-1.815,5.563-3.67,8.132-5.413c0.737-0.503,1.466-0.994,2.177-1.479l0,0l0,0
		L1021.377,372.756z"/>
</g>
</svg>
