<?xml version="1.0" encoding="utf-8"?>
<!-- Generator: Adobe Illustrator 16.0.0, SVG Export Plug-In . SVG Version: 6.00 Build 0)  -->
<!DOCTYPE svg PUBLIC "-//W3C//DTD SVG 1.1//EN" "http://www.w3.org/Graphics/SVG/1.1/DTD/svg11.dtd">
<svg version="1.1" id="Layer_1" xmlns="http://www.w3.org/2000/svg" xmlns:xlink="http://www.w3.org/1999/xlink" x="0px" y="0px"
	 width="1080px" height="1080px" viewBox="0 0 1080 1080" enable-background="new 0 0 1080 1080" xml:space="preserve">
<g>
	<g>
		<g>
			<path fill="#161F48" d="M104.7,645.035H79.604v-8.041h58.666v8.041h-25.098v66.594H104.7V645.035z"/>
			<path fill="#161F48" d="M175.534,654.159v7.279c-12.71,0-21.729,7.821-21.729,18.794v31.396h-8.146v-56.167h8.146v10.973
				C157.174,658.94,165.212,654.159,175.534,654.159z"/>
			<path fill="#161F48" d="M229.609,677.407v34.222h-8.148v-8.801c-4.021,6.625-12.386,10.104-19.772,10.104
				c-11.842,0-20.532-6.845-20.532-17.925c0-11.188,9.993-18.687,22.052-18.687c6.084,0,12.495,1.307,18.252,3.151v-2.064
				c0-7.605-3.042-16.296-15.21-16.296c-5.648,0-11.298,2.498-16.404,5.108l-3.259-6.626c8.039-4.021,14.774-5.435,20.207-5.435
				C222.112,654.159,229.609,663.829,229.609,677.407z M221.461,694.03v-8.582c-5.106-1.415-10.864-2.283-16.948-2.283
				c-8.365,0-15.427,4.781-15.427,11.515c0,6.953,6.084,11.08,14.015,11.08C210.488,705.76,219.287,701.959,221.461,694.03z"/>
			<path fill="#161F48" d="M300.203,635.691v75.938h-8.148v-10.538c-4.237,7.387-11.407,11.841-20.424,11.841
				c-14.774,0-25.854-12.168-25.854-29.439c0-17.165,11.081-29.333,25.854-29.333c9.017,0,16.187,4.454,20.424,11.841v-30.309
				H300.203z M292.055,683.492c0-12.93-7.821-22.054-18.902-22.054c-10.973,0-18.794,9.124-18.794,22.054
				c0,12.929,7.821,22.16,18.794,22.16C284.233,705.652,292.055,696.421,292.055,683.492z"/>
			<path fill="#161F48" d="M318.174,639.819c0-2.825,2.391-5.323,5.433-5.323c2.933,0,5.323,2.498,5.323,5.323
				c0,2.933-2.391,5.431-5.323,5.431C320.564,645.25,318.174,642.752,318.174,639.819z M319.479,655.462h8.148v56.167h-8.148
				V655.462z"/>
			<path fill="#161F48" d="M395.438,675.886v35.743h-8.148v-34.655c0-9.124-5.757-15.535-14.013-15.535
				c-9.451,0-17.382,6.626-17.382,14.447v35.743h-8.148v-56.167h8.148v9.017c3.259-5.973,10.537-10.319,18.468-10.319
				C386.748,654.159,395.438,663.176,395.438,675.886z"/>
			<path fill="#161F48" d="M465.972,655.462v56.167c0,14.447-11.407,24.659-27.594,24.659c-9.126,0-17.599-3.151-22.705-7.494
				l3.584-6.411c4.347,4.128,11.083,6.626,18.035,6.626c12.927,0,20.531-6.411,20.531-17.38v-10.973
				c-4.345,6.846-11.515,10.973-20.424,10.973c-15.101,0-25.854-11.08-25.854-26.727c0-15.643,8.483-30.743,25.854-30.743
				c8.909,0,16.079,4.128,20.424,10.973v-9.67H465.972z M457.823,684.902c0-11.296-7.821-23.464-18.901-23.464
				c-13.732,0-18.794,12.168-18.794,23.464c0,11.407,7.821,19.447,18.794,19.447C450.002,704.35,457.823,696.31,457.823,684.902z"/>
			<path fill="#161F48" d="M521.589,636.994h30.31c15.427,0,27.485,9.885,27.485,23.902c0,14.013-12.059,23.898-27.485,23.898
				h-21.837v26.834h-8.473V636.994z M550.378,676.754c12.166,0,20.424-5.865,20.424-15.857c0-9.997-8.258-15.861-20.424-15.861
				h-20.316v31.719H550.378z"/>
			<path fill="#161F48" d="M592.103,635.691h8.147v75.938h-8.147V635.691z"/>
			<path fill="#161F48" d="M665.379,677.407v34.222h-8.146v-8.801c-4.02,6.625-12.385,10.104-19.772,10.104
				c-11.841,0-20.531-6.845-20.531-17.925c0-11.188,9.993-18.687,22.052-18.687c6.084,0,12.493,1.307,18.252,3.151v-2.064
				c0-7.605-3.042-16.296-15.21-16.296c-5.647,0-11.298,2.498-16.403,5.108l-3.26-6.626c8.039-4.021,14.774-5.435,20.207-5.435
				C657.884,654.159,665.379,663.829,665.379,677.407z M657.232,694.03v-8.582c-5.105-1.415-10.863-2.283-16.947-2.283
				c-8.365,0-15.428,4.781-15.428,11.515c0,6.953,6.085,11.08,14.016,11.08C646.26,705.76,655.06,701.959,657.232,694.03z"/>
			<path fill="#161F48" d="M711.56,709.346c-2.935,2.283-6.628,3.586-10.429,3.586c-8.041,0-13.688-5.977-13.688-14.339v-35.852
				h-8.8v-7.279h8.8v-15.424h8.148v15.424h13.796v7.279h-13.796v35.852c0,4.128,2.822,7.06,6.082,7.06
				c2.498,0,4.671-0.976,5.866-2.278L711.56,709.346z"/>
			<path fill="#161F48" d="M737.367,655.462h13.795v7.279h-13.795v48.888h-8.148v-48.888h-8.8v-7.279h8.8v-7.71
				c0-8.367,5.647-14.344,13.688-14.344c3.801,0,7.494,1.307,10.429,3.586l-4.021,5.977c-1.195-1.303-3.368-2.283-5.866-2.283
				c-3.26,0-6.082,2.933-6.082,7.064V655.462z"/>
			<path fill="#161F48" d="M757.795,683.492c0-15.97,13.363-29.333,29.115-29.333s29.006,13.363,29.006,29.333
				c0,15.969-13.254,29.439-29.006,29.439S757.795,699.461,757.795,683.492z M807.334,683.492c0-11.949-9.344-22.054-20.424-22.054
				c-11.189,0-20.533,10.104-20.533,22.054c0,12.056,9.344,22.16,20.533,22.16C797.99,705.652,807.334,695.548,807.334,683.492z"/>
			<path fill="#161F48" d="M860.9,654.159v7.279c-12.71,0-21.727,7.821-21.727,18.794v31.396h-8.148v-56.167h8.148v10.973
				C842.54,658.94,850.581,654.159,860.9,654.159z"/>
			<path fill="#161F48" d="M953.787,675.886v35.743h-8.147v-34.655c0-9.124-5.323-15.535-12.928-15.535
				c-8.909,0-15.208,5.977-15.208,14.447v35.743h-8.148v-34.655c0-9.124-5.322-15.535-12.927-15.535
				c-8.909,0-15.21,5.977-15.21,14.447v35.743h-8.148v-56.167h8.148v8.26c2.824-5.869,8.908-9.563,16.296-9.563
				c8.473,0,15.101,4.673,18.143,11.948c2.281-7.275,9.668-11.948,18.141-11.948C945.532,654.159,953.787,663.176,953.787,675.886z"
				/>
		</g>
		<g>
			<path fill="#161F48" d="M218.485,490.697l-4.806-6.692c0,0,8.512-1.63,18.763-6.713c15.584-7.708,35.237-23.335,35.237-53.216
				c0-19.547-8.195-31.935-18.933-39.791c-15.289-11.161-35.682-13.13-44.957-13.405c-3.092-0.085-4.935,0-4.935,0h-45.254H118.13
				v212.825h35.471v-93.008h28.313l61.157,93.008h42.099L218.485,490.697z M153.601,477.292v-93.007h32.315
				c14.315,0.656,46.822,6.035,46.822,41.125c0,26.471-11.647,51.883-60.608,51.883H153.601z"/>
			<path fill="#161F48" d="M442.386,550.353V479.41c0-25.031-11.118-43.391-31.49-51.947c-8.365-3.536-18.296-5.399-29.647-5.399
				c-39.007,0-56.901,19.503-56.901,19.503v29.647c5.019,0,5.019,0,5.019,0s13.765-36.804,45.529-36.804
				c31.765,0,36,30.176,36,37.059v16.687c0,0-104.295,1.843-100.314,55.314c3.919,52.813,61.518,57.83,100.314,19.419
				c0.465-0.468,0.953-0.955,1.418-1.439l0.021-0.021c1.971,10.121,6.736,22.276,18.149,22.276h22.49
				C452.974,583.705,442.386,570.47,442.386,550.353z M410.896,547.957c-19.334,33.883-67.49,28.337-67.49-9.762
				c0-38.118,67.49-39.727,67.49-39.727V547.957z"/>
			<path fill="#161F48" d="M620.269,550.353V479.41c0-25.031-11.117-43.391-31.489-51.947c-8.365-3.536-18.296-5.399-29.647-5.399
				c-39.007,0-56.901,19.503-56.901,19.503v29.647c5.019,0,5.019,0,5.019,0s13.765-36.804,45.53-36.804
				c31.765,0,36,30.176,36,37.059v16.687c0,0-104.295,1.843-100.314,55.314c3.919,52.813,61.517,57.83,100.314,19.419
				c0.465-0.468,0.953-0.955,1.418-1.439l0.021-0.021c1.971,10.121,6.735,22.276,18.148,22.276h22.49
				C630.857,583.705,620.269,570.47,620.269,550.353z M588.779,547.957c-19.334,33.883-67.49,28.337-67.49-9.762
				c0-38.118,67.49-39.727,67.49-39.727V547.957z"/>
			<path fill="#161F48" d="M890.291,426.173c-6.417-2.563-14.04-4.109-23.04-4.109c-42.883,0-55.985,34.327-55.985,34.327
				s-5.151-21.621-28.976-30.557c-6.183-2.308-13.469-3.77-21.98-3.77c-41.295,0-54.275,34.327-54.275,34.327v-34.327l-31.49,5.993
				l-5.569,1.059c0,0,5.569,11.901,5.569,25.412v129.707h31.49v-99.806c0-5.019,9.679-41.549,40.511-41.549
				s35.745,31.236,35.745,31.236v110.119h31.49v-95.57c0-23.549,19.588-45.529,39.981-45.529c35.449,0,36.529,36.105,36.529,36.105
				v104.994h31.489V471.469C921.78,460.032,914.518,435.828,890.291,426.173z"/>
			<path fill="#161F48" d="M982.283,379.425c0,0,12.226-11.297,18.109-28.849c0.002,0,0.002-0.002,0.002-0.002
				c-0.022-0.002-0.043-0.006-0.066-0.006c-0.008-0.002-0.017-0.002-0.026-0.004c-0.005,0-0.009,0-0.013,0
				c-0.017-0.002-0.031-0.002-0.048-0.004l0,0c-18.43-1.539-33.617,5.203-33.617,5.203l14.561,5.025l0,0l0,0
				c-0.757,0.384-1.524,0.779-2.291,1.201c-2.492,1.303-5.123,2.657-7.782,4.161c-2.631,1.547-5.59,2.748-8.413,4.272
				c-1.53,0.796-3.073,1.596-4.622,2.401l0,0c-11.731-12.4-27.132-23.675-46.78-29.112c0,0,18.817,12.716,37.328,33.92l0,0
				c-1.103,0.55-2.198,1.1-3.288,1.646c-2.906,1.388-5.64,3.011-8.426,4.3c-5.514,2.697-10.576,5.416-14.975,7.641
				c-2.202,1.106-4.191,2.205-5.962,3.152c-1.787,0.904-3.325,1.762-4.6,2.448c-2.541,1.415-3.991,2.221-3.991,2.221
				s1.643-0.296,4.446-1.036c2.817-0.713,6.822-1.818,11.521-3.41c2.359-0.775,4.932-1.588,7.568-2.647
				c2.653-1.018,5.47-2.06,8.332-3.253c2.886-1.15,5.81-2.467,8.763-3.851c1.586-0.749,3.185-1.503,4.791-2.263
				c10.652,13.035,20.716,28.82,26.453,46.526l9.963-5.693c0,0-7.894-23.683-26.804-45.766l0,0c1.08-0.587,2.155-1.17,3.225-1.754
				c1.431-0.781,2.839-1.58,4.221-2.386c1.394-0.78,2.75-1.592,4.045-2.461c2.633-1.669,5.116-3.375,7.478-4.978
				c0.677-0.463,1.347-0.914,2.002-1.36l0,0l0,0L982.283,379.425z"/>
		</g>
	</g>
</g>
</svg>
