<svg xmlns="http://www.w3.org/2000/svg" viewBox="892.50 325.02 107.89 107.89"><path fill="#FFFFFF" d="M982.283,379.425c0,0,12.226-11.297,18.109-28.849c0.002,0,0.002-0.002,0.002-0.002
				c-0.022-0.002-0.043-0.006-0.066-0.006c-0.008-0.002-0.017-0.002-0.026-0.004c-0.005,0-0.009,0-0.013,0
				c-0.017-0.002-0.031-0.002-0.048-0.004l0,0c-18.43-1.539-33.617,5.203-33.617,5.203l14.561,5.025l0,0l0,0
				c-0.757,0.384-1.524,0.779-2.291,1.201c-2.492,1.303-5.123,2.657-7.782,4.161c-2.631,1.547-5.59,2.748-8.413,4.272
				c-1.53,0.796-3.073,1.596-4.622,2.401l0,0c-11.731-12.4-27.132-23.675-46.78-29.112c0,0,18.817,12.716,37.328,33.92l0,0
				c-1.103,0.55-2.198,1.1-3.288,1.646c-2.906,1.388-5.64,3.011-8.426,4.3c-5.514,2.697-10.576,5.416-14.975,7.641
				c-2.202,1.106-4.191,2.205-5.962,3.152c-1.787,0.904-3.325,1.762-4.6,2.448c-2.541,1.415-3.991,2.221-3.991,2.221
				s1.643-0.296,4.446-1.036c2.817-0.713,6.822-1.818,11.521-3.41c2.359-0.775,4.932-1.588,7.568-2.647
				c2.653-1.018,5.47-2.06,8.332-3.253c2.886-1.15,5.81-2.467,8.763-3.851c1.586-0.749,3.185-1.503,4.791-2.263
				c10.652,13.035,20.716,28.82,26.453,46.526l9.963-5.693c0,0-7.894-23.683-26.804-45.766l0,0c1.08-0.587,2.155-1.17,3.225-1.754
				c1.431-0.781,2.839-1.58,4.221-2.386c1.394-0.78,2.75-1.592,4.045-2.461c2.633-1.669,5.116-3.375,7.478-4.978
				c0.677-0.463,1.347-0.914,2.002-1.36l0,0l0,0L982.283,379.425z"/></svg>
